<svg class="sequence-svg" viewBox="0 0 720 416" xmlns="http://www.w3.org/2000/svg" role="img" aria-labelledby="seq-gr-0-title"><title id="seq-gr-0-title">Automation fire consumer sequence diagram</title><defs><marker id="seq-gr-0-plain" viewBox="0 0 10 10" refX="9" refY="5" markerWidth="6" markerHeight="6" orient="auto"><path d="M0 0L10 5L0 10Z" fill="#78716c"/></marker><marker id="seq-gr-0-code" viewBox="0 0 10 10" refX="9" refY="5" markerWidth="6" markerHeight="6" orient="auto"><path d="M0 0L10 5L0 10Z" fill="#b43b0c"/></marker></defs><rect x="12.0" y="12" width="136" height="58" rx="5" fill="#fafafa" stroke="#d6d3d1"/><text x="80.0" y="35" text-anchor="middle" font-size="14" fill="#292524">Local consumer</text><path d="M80.0 70V386" stroke="#d6d3d1" stroke-dasharray="4 4"/><rect x="198.66666666666663" y="12" width="136" height="58" rx="5" fill="#fafafa" stroke="#d6d3d1"/><text x="266.66666666666663" y="35" text-anchor="middle" font-size="14" fill="#292524">Cloud backend</text><path d="M266.66666666666663 70V386" stroke="#d6d3d1" stroke-dasharray="4 4"/><rect x="385.3333333333333" y="12" width="136" height="58" rx="5" fill="#fafafa" stroke="#d6d3d1"/><text x="453.3333333333333" y="35" text-anchor="middle" font-size="14" fill="#292524">Local event state</text><path d="M453.3333333333333 70V386" stroke="#d6d3d1" stroke-dasharray="4 4"/><rect x="572.0" y="12" width="136" height="58" rx="5" fill="#fafafa" stroke="#d6d3d1"/><text x="640.0" y="35" text-anchor="middle" font-size="14" fill="#292524">Automation handler</text><path d="M640.0 70V386" stroke="#d6d3d1" stroke-dasharray="4 4"/><g class="sequence-message has-code"><rect x="72.0" y="74" width="202.66666666666663" height="65" fill="transparent"/><path d="M80.0 116H266.66666666666663" fill="none" stroke="#b43b0c" stroke-width="1.6" marker-end="url(#seq-gr-0-code)"/><text x="173.33333333333331" y="87" text-anchor="middle" font-size="13" fill="#b43b0c" paint-order="stroke" stroke="white" stroke-width="4">1. Poll automation-events</text><text x="173.33333333333331" y="104" text-anchor="middle" font-size="13" fill="#b43b0c" paint-order="stroke" stroke="white" stroke-width="4">+ ack IDs</text></g><g class="sequence-message has-code"><rect x="72.0" y="150" width="202.66666666666663" height="65" fill="transparent"/><path d="M266.66666666666663 192H80.0" fill="none" stroke="#b43b0c" stroke-width="1.6" stroke-dasharray="5 4" marker-end="url(#seq-gr-0-code)"/><text x="173.33333333333331" y="163" text-anchor="middle" font-size="13" fill="#b43b0c" paint-order="stroke" stroke="white" stroke-width="4">2. events +</text><text x="173.33333333333331" y="180" text-anchor="middle" font-size="13" fill="#b43b0c" paint-order="stroke" stroke="white" stroke-width="4">nextPollAfterMs</text></g><g class="sequence-message has-code"><rect x="72.0" y="226" width="389.3333333333333" height="65" fill="transparent"/><path d="M80.0 268H453.3333333333333" fill="none" stroke="#b43b0c" stroke-width="1.6" marker-end="url(#seq-gr-0-code)"/><text x="266.66666666666663" y="256" text-anchor="middle" font-size="13" fill="#b43b0c" paint-order="stroke" stroke="white" stroke-width="4">3. Ignore IDs already tracked</text></g><g class="sequence-message has-code"><rect x="72.0" y="302" width="576.0" height="65" fill="transparent"/><path d="M80.0 344H640.0" fill="none" stroke="#b43b0c" stroke-width="1.6" marker-end="url(#seq-gr-0-code)"/><text x="360.0" y="332" text-anchor="middle" font-size="13" fill="#b43b0c" paint-order="stroke" stroke="white" stroke-width="4">4. deliver(unseen event)</text></g></svg>