<svg class="sequence-svg" viewBox="0 0 720 416" xmlns="http://www.w3.org/2000/svg" role="img" aria-labelledby="seq-hermes-6-title"><title id="seq-hermes-6-title">Background review sequence diagram</title><defs><marker id="seq-hermes-6-plain" viewBox="0 0 10 10" refX="9" refY="5" markerWidth="6" markerHeight="6" orient="auto"><path d="M0 0L10 5L0 10Z" fill="#78716c"/></marker><marker id="seq-hermes-6-code" viewBox="0 0 10 10" refX="9" refY="5" markerWidth="6" markerHeight="6" orient="auto"><path d="M0 0L10 5L0 10Z" fill="#b43b0c"/></marker></defs><rect x="12.0" y="12" width="136" height="58" rx="5" fill="#fafafa" stroke="#d6d3d1"/><text x="80.0" y="35" text-anchor="middle" font-size="14" fill="#292524">Turn finalizer</text><path d="M80.0 70V386" stroke="#d6d3d1" stroke-dasharray="4 4"/><rect x="292.0" y="12" width="136" height="58" rx="5" fill="#fafafa" stroke="#d6d3d1"/><text x="360.0" y="35" text-anchor="middle" font-size="14" fill="#292524">Agent instance</text><path d="M360.0 70V386" stroke="#d6d3d1" stroke-dasharray="4 4"/><rect x="572.0" y="12" width="136" height="58" rx="5" fill="#fafafa" stroke="#d6d3d1"/><text x="640.0" y="35" text-anchor="middle" font-size="14" fill="#292524">Background review</text><path d="M640.0 70V386" stroke="#d6d3d1" stroke-dasharray="4 4"/><g class="sequence-message has-code"><rect x="72.0" y="74" width="245" height="65" fill="transparent"/><path d="M80.0 116h34v18h-34" fill="none" stroke="#b43b0c" stroke-width="1.6" marker-end="url(#seq-hermes-6-code)"/><text x="125.0" y="87" text-anchor="start" font-size="13" fill="#b43b0c" paint-order="stroke" stroke="white" stroke-width="4">1. Check final response /</text><text x="125.0" y="104" text-anchor="start" font-size="13" fill="#b43b0c" paint-order="stroke" stroke="white" stroke-width="4">flags</text></g><g class="sequence-message has-code"><rect x="72.0" y="150" width="296.0" height="65" fill="transparent"/><path d="M80.0 192H360.0" fill="none" stroke="#b43b0c" stroke-width="1.6" marker-end="url(#seq-hermes-6-code)"/><text x="220.0" y="180" text-anchor="middle" font-size="13" fill="#b43b0c" paint-order="stroke" stroke="white" stroke-width="4">2. _spawn_background_review</text></g><g class="sequence-message"><rect x="352.0" y="226" width="296.0" height="65" fill="transparent"/><path d="M360.0 268H640.0" fill="none" stroke="#78716c" stroke-width="1.6" marker-end="url(#seq-hermes-6-plain)"/><text x="500.0" y="256" text-anchor="middle" font-size="13" fill="#78716c" paint-order="stroke" stroke="white" stroke-width="4">3. Review captured experience</text></g><g class="sequence-message"><rect x="430.0" y="302" width="245" height="65" fill="transparent"/><path d="M640.0 344h34v18h-34" fill="none" stroke="#78716c" stroke-width="1.6" marker-end="url(#seq-hermes-6-plain)"/><text x="632.0" y="315" text-anchor="end" font-size="13" fill="#78716c" paint-order="stroke" stroke="white" stroke-width="4">4. Restricted improvement</text><text x="632.0" y="332" text-anchor="end" font-size="13" fill="#78716c" paint-order="stroke" stroke="white" stroke-width="4">writes</text></g></svg>