<svg viewBox="0 0 880 624" xmlns="http://www.w3.org/2000/svg" role="img" font-family="ui-sans-serif, system-ui, -apple-system, sans-serif">
  <title>Logical architecture — capability view, cloud-agnostic</title>
  <desc>Capability components (channels, gateway, orchestrator, queue, worker pool, colleague identity plane, shared business state, observability) named by role, not by cloud product. Phase 1 binds these to AWS; the same model binds on-prem.</desc>

  <defs>
    <marker id="arr" viewBox="0 0 10 10" refX="9" refY="5" markerWidth="6" markerHeight="6" orient="auto"><path d="M0,0 L10,5 L0,10 z" fill="#6b7280"/></marker>
    <marker id="arrAccent" viewBox="0 0 10 10" refX="9" refY="5" markerWidth="6" markerHeight="6" orient="auto"><path d="M0,0 L10,5 L0,10 z" fill="#c2410c"/></marker>
  </defs>

  <style>
    .label { font-size: 13px; font-weight: 500; fill: #111827; }
    .sub { font-size: 11px; fill: #6b7280; }
    .tier { font-size: 11px; font-weight: 500; fill: #6b7280; letter-spacing: 0.5px; text-transform: uppercase; }
    .edge { stroke: #9ca3af; stroke-width: 1.2; fill: none; }
    .edgeAccent { stroke: #c2410c; stroke-width: 1.3; fill: none; }
    .edgeDash { stroke-dasharray: 4 3; }
    .box { fill: #ffffff; stroke: #d1d5db; stroke-width: 1; }
    .boxAgent { fill: #fff7ed; stroke: #fdba74; stroke-width: 1; }
    .boxShared { fill: #f9fafb; stroke: #d1d5db; stroke-dasharray: 4 3; stroke-width: 1; }
    .boxId { fill: #fff7ed; stroke: #fdba74; stroke-dasharray: 4 3; stroke-width: 1; }
    .pill { fill: #f3f4f6; stroke: #e5e7eb; stroke-width: 1; }
    .pillAccent { fill: #fff7ed; stroke: #fdba74; stroke-width: 1; }
    .edgeLabel { font-size: 10px; fill: #6b7280; font-family: ui-monospace, monospace; }
    .divider { stroke: #e5e7eb; stroke-width: 1; }
  </style>

  <text x="20" y="20" class="tier">LOGICAL ARCHITECTURE · CAPABILITY VIEW · CLOUD-AGNOSTIC</text>

  <!-- Channels -->
  <text x="20" y="44" class="tier">CHANNELS (ANY) → NORMALIZED TO A TURN</text>
  <rect x="40" y="52" width="84" height="28" rx="6" class="box"/><text x="82" y="70" text-anchor="middle" class="sub">Claw3D</text>
  <rect x="132" y="52" width="84" height="28" rx="6" class="box"/><text x="174" y="70" text-anchor="middle" class="sub">Linear</text>
  <rect x="224" y="52" width="84" height="28" rx="6" class="box"/><text x="266" y="70" text-anchor="middle" class="sub">Email</text>
  <rect x="316" y="52" width="84" height="28" rx="6" class="box"/><text x="358" y="70" text-anchor="middle" class="sub">Voice</text>
  <rect x="408" y="52" width="92" height="28" rx="6" class="box"/><text x="454" y="70" text-anchor="middle" class="sub">Webhook / API</text>

  <line x1="82" y1="80" x2="82" y2="106" class="edge" marker-end="url(#arr)"/>
  <line x1="174" y1="80" x2="174" y2="106" class="edge" marker-end="url(#arr)"/>
  <line x1="266" y1="80" x2="266" y2="106" class="edge" marker-end="url(#arr)"/>
  <line x1="358" y1="80" x2="358" y2="106" class="edge" marker-end="url(#arr)"/>
  <line x1="454" y1="80" x2="454" y2="106" class="edge" marker-end="url(#arr)"/>

  <!-- Edge / gateway -->
  <rect x="40" y="108" width="460" height="34" rx="6" class="box"/>
  <text x="56" y="129" class="label">Gateway</text>
  <text x="150" y="129" class="sub">edge authn · rate-limit · TLS · load-balance</text>
  <line x1="200" y1="142" x2="200" y2="158" class="edge" marker-end="url(#arr)"/>

  <!-- Control plane: orchestrator -->
  <text x="20" y="172" class="tier">CONTROL PLANE</text>
  <rect x="40" y="160" width="460" height="84" rx="8" class="box"/>
  <text x="56" y="182" class="label">Orchestrator</text>
  <text x="56" y="196" class="sub">routing · dispatch · fine-grained authz · connection mgmt</text>
  <rect x="56" y="206" width="124" height="26" rx="13" class="pill"/><text x="118" y="223" text-anchor="middle" class="sub">routing · dispatch</text>
  <rect x="188" y="206" width="116" height="26" rx="13" class="pill"/><text x="246" y="223" text-anchor="middle" class="sub">authz (business)</text>
  <rect x="312" y="206" width="120" height="26" rx="13" class="pill"/><text x="372" y="223" text-anchor="middle" class="sub">connection / SSE</text>

  <line x1="160" y1="244" x2="160" y2="262" class="edge" marker-end="url(#arr)"/>

  <!-- Dispatch queue -->
  <rect x="40" y="264" width="300" height="32" rx="16" class="pillAccent"/>
  <text x="56" y="285" class="label">Dispatch queue</text>
  <text x="324" y="285" text-anchor="end" class="sub">turns</text>
  <line x1="160" y1="296" x2="160" y2="312" class="edge" marker-end="url(#arr)"/>
  <text x="166" y="308" class="edgeLabel">dispatch turn</text>

  <!-- streaming return -->
  <path d="M 420 314 L 420 246" class="edge edgeDash" marker-end="url(#arr)"/>
  <text x="426" y="300" class="edgeLabel">live events</text>

  <!-- Execution / data plane: worker pool -->
  <text x="20" y="326" class="tier">EXECUTION · DATA PLANE</text>
  <rect x="40" y="314" width="460" height="168" rx="8" class="boxAgent"/>
  <text x="56" y="336" class="label">Worker pool</text>
  <text x="56" y="350" class="sub">stateless · scales on demand · runs one turn, then frees</text>

  <rect x="56" y="360" width="204" height="64" rx="6" class="box"/>
  <text x="158" y="380" text-anchor="middle" class="label">Agent runtime (pluggable)</text>
  <text x="158" y="395" text-anchor="middle" class="sub">Codex / Claude Code / future</text>
  <text x="158" y="409" text-anchor="middle" class="sub">spawned per turn</text>

  <rect x="272" y="360" width="212" height="64" rx="6" class="box"/>
  <text x="378" y="380" text-anchor="middle" class="label">Tool layer — MCP ports</text>
  <text x="378" y="395" text-anchor="middle" class="sub">doc · kanban · message · memory</text>
  <text x="378" y="409" text-anchor="middle" class="sub">storage-agnostic interface</text>

  <text x="56" y="446" class="sub">A colleague = persona + memory + skills, loaded at turn start.</text>
  <text x="56" y="462" class="sub">Identity is data, not a deployment. Any worker runs any colleague.</text>

  <!-- Colleague identity plane (right, upper) -->
  <text x="520" y="44" class="tier">COLLEAGUE IDENTITY PLANE</text>
  <rect x="520" y="52" width="340" height="244" rx="8" class="boxId"/>
  <text x="536" y="74" class="label">Persona store</text>
  <text x="536" y="88" class="sub">who the colleague is — role, voice, rules (data)</text>
  <line x1="536" y1="100" x2="844" y2="100" class="divider"/>
  <text x="536" y="120" class="label">Memory store</text>
  <text x="536" y="134" class="sub">what it remembers · scope: session / colleague / team</text>
  <line x1="536" y1="146" x2="844" y2="146" class="divider"/>
  <text x="536" y="166" class="label">Skill registry</text>
  <text x="536" y="180" class="sub">what it can do — bundled, composable capabilities</text>
  <line x1="536" y1="192" x2="844" y2="192" class="divider"/>
  <text x="536" y="212" class="label">Permission / RBAC</text>
  <text x="536" y="226" class="sub">what it may do · who may reach / approve it</text>
  <line x1="536" y1="238" x2="844" y2="238" class="divider"/>
  <text x="536" y="258" class="label">Secret store</text>
  <text x="536" y="272" class="sub">per-colleague runtime / LLM credentials</text>
  <text x="536" y="288" class="sub">injected at turn start, never in code</text>

  <!-- Shared business state (right, lower) -->
  <text x="520" y="324" class="tier">SHARED BUSINESS STATE</text>
  <rect x="520" y="314" width="340" height="168" rx="8" class="boxShared"/>
  <text x="536" y="338" class="label">Document / artifact store</text>
  <text x="536" y="352" class="sub">via source connectors (S3 / SharePoint / …)</text>
  <line x1="536" y1="364" x2="844" y2="364" class="divider"/>
  <text x="536" y="384" class="label">Work state store</text>
  <text x="536" y="398" class="sub">kanban · messages · tickets · sessions</text>
  <line x1="536" y1="410" x2="844" y2="410" class="divider"/>
  <text x="536" y="430" class="label">Audit store</text>
  <text x="536" y="444" class="sub">immutable · append-only · retained</text>
  <text x="536" y="468" class="sub">Every state box is a capability — backed by whatever the binding chooses.</text>

  <!-- orange edges: worker loads identity, reads/writes business state -->
  <path d="M 500 372 C 512 372 514 200 518 180" class="edgeAccent edgeDash" marker-end="url(#arrAccent)"/>
  <path d="M 500 400 C 512 400 514 390 518 390" class="edgeAccent edgeDash" marker-end="url(#arrAccent)"/>

  <!-- Observability -->
  <rect x="40" y="494" width="460" height="30" rx="6" class="box"/>
  <text x="56" y="513" class="label">Observability</text>
  <text x="200" y="513" class="sub">tracing · metrics · logs — per turn, across the fleet</text>

  <!-- Binding footer -->
  <text x="20" y="552" class="tier">BINDING — EVERY BOX IS A CAPABILITY, NOT A PRODUCT</text>
  <text x="20" y="570" class="sub">Phase 1 binds to AWS: ALB+WAF+Cognito · ECS Fargate · SQS · Redis Pub/Sub · RDS Postgres · S3 · Secrets Manager · CloudWatch.</text>
  <text x="20" y="586" class="sub">The same model binds on-prem: reverse proxy+OIDC · k8s/VMs · RabbitMQ/NATS · Redis · Postgres · MinIO · Vault · Prometheus. See ADR-013, ADR-008.</text>
  <text x="20" y="608" class="edgeLabel">— solid: sync call    – – dashed: async / events    ▬ orange: agent ↔ colleague identity &amp; tool ports</text>
</svg>
